G04 Layer: TopLayer*
G04 EasyEDA v5.9.42, Tue, 19 Feb 2019 02:49:18 GMT*
G04 6333967b838042d2a107bc752d40cc6d*
G04 Gerber Generator version 0.2*
G04 Scale: 100 percent, Rotated: No, Reflected: No *
G04 Dimensions in millimeters *
G04 leading zeros omitted , absolute positions ,3 integer and 3 decimal *
%FSLAX33Y33*%
%MOMM*%
G90*
G71D02*

%ADD10C,0.254000*%
%ADD11C,1.524000*%
%ADD12R,1.778000X1.778000*%
%ADD13C,1.778000*%
%ADD14C,1.414780*%
%ADD15C,2.684780*%

%LPD*%
G54D10*
G01X106553Y40386D02*
G01X72390Y40386D01*
G01X58166Y53086D01*
G01X51140Y53025D01*
G01X106553Y35306D02*
G01X56261Y35306D01*
G01X43180Y48006D01*
G01X43180Y53213D01*
G01X45720Y55499D01*
G01X51140Y55575D01*
G01X121793Y65786D02*
G01X116586Y70866D01*
G01X51130Y70866D01*
G01X51140Y70876D01*
G01X121793Y60706D02*
G01X128524Y60833D01*
G01X131826Y63881D01*
G01X131826Y71247D01*
G01X129159Y73406D01*
G01X55499Y73406D01*
G01X51140Y73426D01*
G01X121793Y40386D02*
G01X125095Y40386D01*
G01X127635Y37846D01*
G01X127635Y33401D01*
G01X122047Y27813D01*
G01X122047Y27813D02*
G01X122047Y15875D01*
G01X124587Y13335D01*
G01X122047Y27813D02*
G01X122047Y25019D01*
G01X120396Y23368D01*
G01X75565Y23368D01*
G01X71247Y27686D01*
G01X75565Y23368D02*
G01X75565Y14986D01*
G01X73787Y13208D01*
G01X71247Y27686D02*
G01X71120Y27686D01*
G01X66802Y23368D01*
G01X24765Y23368D01*
G01X20447Y27686D01*
G01X24765Y23368D02*
G01X24765Y14986D01*
G01X22987Y13208D01*
G01X20447Y27686D02*
G01X20447Y31877D01*
G01X2032Y50292D01*
G01X2032Y53340D01*
G01X3738Y55478D01*
G01X7393Y55372D01*
G01X121793Y48006D02*
G01X118491Y48006D01*
G01X114935Y44450D01*
G01X114935Y35814D01*
G01X109093Y29972D01*
G01X56261Y29972D01*
G01X40513Y45720D01*
G01X14859Y45720D01*
G01X10160Y50292D01*
G01X5306Y50292D01*
G54D12*
G01X121793Y32766D03*
G54D13*
G01X121793Y35306D03*
G01X121793Y37846D03*
G01X121793Y40386D03*
G01X121793Y42926D03*
G01X121793Y45466D03*
G01X121793Y48006D03*
G01X121793Y50546D03*
G01X121793Y53086D03*
G01X121793Y55626D03*
G01X121793Y58166D03*
G01X121793Y60706D03*
G01X121793Y63246D03*
G01X121793Y65786D03*
G01X121793Y68326D03*
G01X106553Y32766D03*
G01X106553Y35306D03*
G01X106553Y37846D03*
G01X106553Y40386D03*
G01X106553Y42926D03*
G01X106553Y45466D03*
G01X106553Y48006D03*
G01X106553Y50546D03*
G01X106553Y53086D03*
G01X106553Y55626D03*
G01X106553Y58166D03*
G01X106553Y60706D03*
G01X106553Y63246D03*
G01X106553Y65786D03*
G01X106553Y68326D03*
G54D14*
G01X20447Y27686D03*
G01X17907Y13208D03*
G54D15*
G01X13843Y20193D03*
G01X27051Y20193D03*
G54D14*
G01X22987Y13208D03*
G01X17907Y27686D03*
G01X22987Y27686D03*
G01X71247Y27686D03*
G01X68707Y13208D03*
G54D15*
G01X64643Y20193D03*
G01X77851Y20193D03*
G54D14*
G01X73787Y13208D03*
G01X68707Y27686D03*
G01X73787Y27686D03*
G01X122047Y27813D03*
G01X119507Y13335D03*
G54D15*
G01X115443Y20320D03*
G01X128651Y20320D03*
G54D14*
G01X124587Y13335D03*
G01X119507Y27813D03*
G01X124587Y27813D03*
G54D11*
G01X51141Y53026D03*
G01X51141Y55575D03*
G01X51141Y58126D03*
G01X51141Y60676D03*
G01X51141Y63225D03*
G01X51141Y65776D03*
G01X51141Y68326D03*
G01X51141Y70875D03*
G01X51141Y73426D03*
G01X51141Y75975D03*
G01X51141Y78526D03*
G01X20574Y50292D03*
G01X20574Y55372D03*
G01X6350Y50292D03*
G01X6350Y55372D03*
G54D13*
G01X7048Y50292D02*
G01X5651Y50292D01*
G01X7048Y55372D02*
G01X5651Y55372D01*
G01X21272Y50292D02*
G01X19875Y50292D01*
G01X21272Y55372D02*
G01X19875Y55372D01*
M00*
M02*
