G04 Layer: TopSilkLayer*
G04 EasyEDA v5.9.42, Tue, 19 Feb 2019 02:49:18 GMT*
G04 6333967b838042d2a107bc752d40cc6d*
G04 Gerber Generator version 0.2*
G04 Scale: 100 percent, Rotated: No, Reflected: No *
G04 Dimensions in millimeters *
G04 leading zeros omitted , absolute positions ,3 integer and 3 decimal *
%FSLAX33Y33*%
%MOMM*%
G90*
G71D02*

%ADD10C,0.254000*%
%ADD16C,0.152400*%
%ADD17C,0.203200*%

%LPD*%
G54D10*
G01X123063Y72136D02*
G01X105283Y72136D01*
G01X105283Y72136D02*
G01X105283Y28956D01*
G01X105283Y28956D02*
G01X123063Y28956D01*
G01X123063Y28956D02*
G01X123063Y72136D01*
G01X117983Y68326D02*
G01X117983Y75946D01*
G01X110363Y75946D01*
G01X110363Y68326D01*
G01X117983Y68326D01*
G01X14097Y13843D02*
G01X14097Y17653D01*
G01X14097Y22733D02*
G01X14097Y26543D01*
G01X14097Y26543D02*
G01X26797Y26543D01*
G01X26797Y26543D02*
G01X26797Y22733D01*
G01X26797Y17653D02*
G01X26797Y13843D01*
G01X26797Y13843D02*
G01X24257Y13843D01*
G01X14097Y13843D02*
G01X16637Y13843D01*
G01X19177Y13843D02*
G01X21717Y13843D01*
G01X64897Y13843D02*
G01X64897Y17653D01*
G01X64897Y22733D02*
G01X64897Y26543D01*
G01X64897Y26543D02*
G01X77597Y26543D01*
G01X77597Y26543D02*
G01X77597Y22733D01*
G01X77597Y17653D02*
G01X77597Y13843D01*
G01X77597Y13843D02*
G01X75057Y13843D01*
G01X64897Y13843D02*
G01X67437Y13843D01*
G01X69977Y13843D02*
G01X72517Y13843D01*
G01X115697Y13970D02*
G01X115697Y17780D01*
G01X115697Y22860D02*
G01X115697Y26670D01*
G01X115697Y26670D02*
G01X128397Y26670D01*
G01X128397Y26670D02*
G01X128397Y22860D01*
G01X128397Y17780D02*
G01X128397Y13970D01*
G01X128397Y13970D02*
G01X125857Y13970D01*
G01X115697Y13970D02*
G01X118237Y13970D01*
G01X120777Y13970D02*
G01X123317Y13970D01*
G01X48641Y81026D02*
G01X92640Y81026D01*
G01X92640Y50026D01*
G01X48641Y50026D01*
G01X48641Y81026D01*
G01X19461Y47633D02*
G01X19461Y46633D01*
G01X7462Y46633D01*
G01X7462Y58633D01*
G01X19461Y58633D01*
G01X19461Y47633D01*
G01X13462Y54633D02*
G01X13462Y53633D01*
G01X11961Y52134D01*
G01X13462Y51633D02*
G01X13462Y50633D01*
G01X13961Y50633D02*
G01X12961Y50633D01*
G01X13961Y54633D02*
G01X12961Y54633D01*
G54D16*
G01X114427Y28856D02*
G01X114427Y28079D01*
G01X114477Y27922D01*
G01X114581Y27818D01*
G01X114739Y27767D01*
G01X114843Y27767D01*
G01X114998Y27818D01*
G01X115102Y27922D01*
G01X115153Y28079D01*
G01X115153Y28856D01*
G01X115496Y28651D02*
G01X115600Y28702D01*
G01X115757Y28856D01*
G01X115757Y27767D01*
G54D17*
G01X128490Y31935D02*
G01X128490Y32905D01*
G01X128490Y31935D02*
G01X128168Y31935D01*
G01X128028Y31981D01*
G01X127937Y32072D01*
G01X127891Y32166D01*
G01X127843Y32303D01*
G01X127843Y32534D01*
G01X127891Y32674D01*
G01X127937Y32766D01*
G01X128028Y32857D01*
G01X128168Y32905D01*
G01X128490Y32905D01*
G01X127538Y32120D02*
G01X127447Y32072D01*
G01X127309Y31935D01*
G01X127309Y32905D01*
G01X126171Y31750D02*
G01X127005Y33228D01*
G01X125544Y31935D02*
G01X125544Y32905D01*
G01X125867Y31935D02*
G01X125222Y31935D01*
G01X124917Y31935D02*
G01X124269Y32905D01*
G01X124269Y31935D02*
G01X124917Y32905D01*
G01X103065Y34983D02*
G01X103111Y34889D01*
G01X103205Y34798D01*
G01X103296Y34752D01*
G01X103482Y34752D01*
G01X103573Y34798D01*
G01X103667Y34889D01*
G01X103713Y34983D01*
G01X103759Y35120D01*
G01X103759Y35351D01*
G01X103713Y35491D01*
G01X103667Y35582D01*
G01X103573Y35674D01*
G01X103482Y35722D01*
G01X103296Y35722D01*
G01X103205Y35674D01*
G01X103111Y35582D01*
G01X103065Y35491D01*
G01X103065Y35351D01*
G01X103296Y35351D02*
G01X103065Y35351D01*
G01X102760Y34752D02*
G01X102760Y35722D01*
G01X102760Y34752D02*
G01X102115Y35722D01*
G01X102115Y34752D02*
G01X102115Y35722D01*
G01X101810Y34752D02*
G01X101810Y35722D01*
G01X101810Y34752D02*
G01X101485Y34752D01*
G01X101348Y34798D01*
G01X101257Y34889D01*
G01X101208Y34983D01*
G01X101163Y35120D01*
G01X101163Y35351D01*
G01X101208Y35491D01*
G01X101257Y35582D01*
G01X101348Y35674D01*
G01X101485Y35722D01*
G01X101810Y35722D01*
G01X103342Y40223D02*
G01X103342Y41056D01*
G01X103759Y40640D02*
G01X102928Y40640D01*
G01X102069Y40086D02*
G01X102529Y40086D01*
G01X102577Y40500D01*
G01X102529Y40454D01*
G01X102392Y40408D01*
G01X102252Y40408D01*
G01X102115Y40454D01*
G01X102021Y40548D01*
G01X101975Y40685D01*
G01X101975Y40779D01*
G01X102021Y40916D01*
G01X102115Y41008D01*
G01X102252Y41056D01*
G01X102392Y41056D01*
G01X102529Y41008D01*
G01X102577Y40962D01*
G01X102623Y40871D01*
G01X101671Y40086D02*
G01X101302Y41056D01*
G01X100931Y40086D02*
G01X101302Y41056D01*
G01X130883Y67772D02*
G01X130883Y68742D01*
G01X130883Y67772D02*
G01X130561Y67772D01*
G01X130421Y67818D01*
G01X130329Y67909D01*
G01X130284Y68003D01*
G01X130235Y68140D01*
G01X130235Y68371D01*
G01X130284Y68511D01*
G01X130329Y68602D01*
G01X130421Y68694D01*
G01X130561Y68742D01*
G01X130883Y68742D01*
G01X129931Y67957D02*
G01X129839Y67909D01*
G01X129702Y67772D01*
G01X129702Y68742D01*
G01X129349Y68003D02*
G01X129349Y67957D01*
G01X129303Y67863D01*
G01X129258Y67818D01*
G01X129166Y67772D01*
G01X128981Y67772D01*
G01X128889Y67818D01*
G01X128841Y67863D01*
G01X128795Y67957D01*
G01X128795Y68049D01*
G01X128841Y68140D01*
G01X128935Y68280D01*
G01X129397Y68742D01*
G01X128750Y68742D01*
G01X127614Y67586D02*
G01X128445Y69065D01*
G01X127309Y67772D02*
G01X127309Y68742D01*
G01X127309Y67772D02*
G01X126939Y68742D01*
G01X126570Y67772D02*
G01X126939Y68742D01*
G01X126570Y67772D02*
G01X126570Y68742D01*
G01X126265Y67772D02*
G01X126265Y68742D01*
G01X125313Y67909D02*
G01X125407Y67818D01*
G01X125544Y67772D01*
G01X125730Y67772D01*
G01X125867Y67818D01*
G01X125961Y67909D01*
G01X125961Y68003D01*
G01X125915Y68094D01*
G01X125867Y68140D01*
G01X125775Y68186D01*
G01X125498Y68280D01*
G01X125407Y68326D01*
G01X125359Y68371D01*
G01X125313Y68465D01*
G01X125313Y68602D01*
G01X125407Y68694D01*
G01X125544Y68742D01*
G01X125730Y68742D01*
G01X125867Y68694D01*
G01X125961Y68602D01*
G01X124731Y67772D02*
G01X124825Y67818D01*
G01X124917Y67909D01*
G01X124962Y68003D01*
G01X125008Y68140D01*
G01X125008Y68371D01*
G01X124962Y68511D01*
G01X124917Y68602D01*
G01X124825Y68694D01*
G01X124731Y68742D01*
G01X124546Y68742D01*
G01X124454Y68694D01*
G01X124363Y68602D01*
G01X124317Y68511D01*
G01X124269Y68371D01*
G01X124269Y68140D01*
G01X124317Y68003D01*
G01X124363Y67909D01*
G01X124454Y67818D01*
G01X124546Y67772D01*
G01X124731Y67772D01*
G01X103759Y32212D02*
G01X103390Y33182D01*
G01X103019Y32212D02*
G01X103390Y33182D01*
G01X102715Y32212D02*
G01X102715Y33182D01*
G01X102410Y32212D02*
G01X102410Y33182D01*
G01X102410Y32212D02*
G01X101765Y33182D01*
G01X101765Y32212D02*
G01X101765Y33182D01*
G01X103759Y68026D02*
G01X103759Y68996D01*
G01X103759Y68026D02*
G01X103436Y68026D01*
G01X103296Y68072D01*
G01X103205Y68163D01*
G01X103159Y68257D01*
G01X103111Y68394D01*
G01X103111Y68625D01*
G01X103159Y68765D01*
G01X103205Y68856D01*
G01X103296Y68948D01*
G01X103436Y68996D01*
G01X103759Y68996D01*
G01X102806Y68211D02*
G01X102715Y68163D01*
G01X102577Y68026D01*
G01X102577Y68996D01*
G01X102179Y68026D02*
G01X101671Y68026D01*
G01X101947Y68394D01*
G01X101810Y68394D01*
G01X101716Y68440D01*
G01X101671Y68488D01*
G01X101625Y68625D01*
G01X101625Y68719D01*
G01X101671Y68856D01*
G01X101765Y68948D01*
G01X101902Y68996D01*
G01X102041Y68996D01*
G01X102179Y68948D01*
G01X102224Y68902D01*
G01X102273Y68811D01*
G01X100490Y67840D02*
G01X101320Y69319D01*
G01X99537Y68163D02*
G01X99631Y68072D01*
G01X99768Y68026D01*
G01X99954Y68026D01*
G01X100091Y68072D01*
G01X100185Y68163D01*
G01X100185Y68257D01*
G01X100139Y68348D01*
G01X100091Y68394D01*
G01X99999Y68440D01*
G01X99722Y68534D01*
G01X99631Y68580D01*
G01X99583Y68625D01*
G01X99537Y68719D01*
G01X99537Y68856D01*
G01X99631Y68948D01*
G01X99768Y68996D01*
G01X99954Y68996D01*
G01X100091Y68948D01*
G01X100185Y68856D01*
G01X98539Y68257D02*
G01X98587Y68163D01*
G01X98679Y68072D01*
G01X98770Y68026D01*
G01X98955Y68026D01*
G01X99047Y68072D01*
G01X99141Y68163D01*
G01X99187Y68257D01*
G01X99232Y68394D01*
G01X99232Y68625D01*
G01X99187Y68765D01*
G01X99141Y68856D01*
G01X99047Y68948D01*
G01X98955Y68996D01*
G01X98770Y68996D01*
G01X98679Y68948D01*
G01X98587Y68856D01*
G01X98539Y68765D01*
G01X98234Y68026D02*
G01X98234Y68996D01*
G01X97589Y68026D02*
G01X98234Y68671D01*
G01X98005Y68440D02*
G01X97589Y68996D01*
G01X126171Y40063D02*
G01X126217Y39969D01*
G01X126311Y39878D01*
G01X126403Y39832D01*
G01X126588Y39832D01*
G01X126679Y39878D01*
G01X126773Y39969D01*
G01X126819Y40063D01*
G01X126865Y40200D01*
G01X126865Y40431D01*
G01X126819Y40571D01*
G01X126773Y40662D01*
G01X126679Y40754D01*
G01X126588Y40802D01*
G01X126403Y40802D01*
G01X126311Y40754D01*
G01X126217Y40662D01*
G01X126171Y40571D01*
G01X126171Y40431D01*
G01X126403Y40431D02*
G01X126171Y40431D01*
G01X125867Y39832D02*
G01X125867Y40802D01*
G01X125867Y39832D02*
G01X125222Y40802D01*
G01X125222Y39832D02*
G01X125222Y40802D01*
G01X124917Y39832D02*
G01X124917Y40802D01*
G01X124917Y39832D02*
G01X124592Y39832D01*
G01X124454Y39878D01*
G01X124363Y39969D01*
G01X124315Y40063D01*
G01X124269Y40200D01*
G01X124269Y40431D01*
G01X124315Y40571D01*
G01X124363Y40662D01*
G01X124454Y40754D01*
G01X124592Y40802D01*
G01X124917Y40802D01*
G01X128905Y34983D02*
G01X128905Y35953D01*
G01X128905Y34983D02*
G01X128582Y34983D01*
G01X128442Y35029D01*
G01X128351Y35120D01*
G01X128305Y35214D01*
G01X128257Y35351D01*
G01X128257Y35582D01*
G01X128305Y35722D01*
G01X128351Y35814D01*
G01X128442Y35905D01*
G01X128582Y35953D01*
G01X128905Y35953D01*
G01X127675Y34983D02*
G01X127815Y35029D01*
G01X127906Y35168D01*
G01X127952Y35397D01*
G01X127952Y35537D01*
G01X127906Y35768D01*
G01X127815Y35905D01*
G01X127675Y35953D01*
G01X127584Y35953D01*
G01X127444Y35905D01*
G01X127353Y35768D01*
G01X127307Y35537D01*
G01X127307Y35397D01*
G01X127353Y35168D01*
G01X127444Y35029D01*
G01X127584Y34983D01*
G01X127675Y34983D01*
G01X126171Y34798D02*
G01X127002Y36276D01*
G01X125867Y34983D02*
G01X125867Y35953D01*
G01X125867Y34983D02*
G01X125450Y34983D01*
G01X125310Y35029D01*
G01X125265Y35074D01*
G01X125219Y35168D01*
G01X125219Y35260D01*
G01X125265Y35351D01*
G01X125310Y35397D01*
G01X125450Y35445D01*
G01X125867Y35445D01*
G01X125542Y35445D02*
G01X125219Y35953D01*
G01X124914Y34983D02*
G01X124269Y35953D01*
G01X124269Y34983D02*
G01X124914Y35953D01*
G01X128628Y37338D02*
G01X128628Y38308D01*
G01X128628Y37338D02*
G01X128211Y37338D01*
G01X128074Y37383D01*
G01X128028Y37429D01*
G01X127980Y37523D01*
G01X127980Y37614D01*
G01X128028Y37706D01*
G01X128074Y37752D01*
G01X128211Y37800D01*
G01X128628Y37800D01*
G01X128305Y37800D02*
G01X127980Y38308D01*
G01X127675Y37338D02*
G01X127675Y38308D01*
G01X127675Y37338D02*
G01X127076Y37338D01*
G01X127675Y37800D02*
G01X127307Y37800D01*
G01X127675Y38308D02*
G01X127076Y38308D01*
G01X126126Y37475D02*
G01X126217Y37383D01*
G01X126354Y37338D01*
G01X126540Y37338D01*
G01X126679Y37383D01*
G01X126771Y37475D01*
G01X126771Y37569D01*
G01X126725Y37660D01*
G01X126679Y37706D01*
G01X126585Y37752D01*
G01X126309Y37846D01*
G01X126217Y37891D01*
G01X126171Y37937D01*
G01X126126Y38031D01*
G01X126126Y38168D01*
G01X126217Y38260D01*
G01X126354Y38308D01*
G01X126540Y38308D01*
G01X126679Y38260D01*
G01X126771Y38168D01*
G01X125821Y37338D02*
G01X125821Y38308D01*
G01X125821Y37338D02*
G01X125219Y37338D01*
G01X125821Y37800D02*
G01X125450Y37800D01*
G01X125821Y38308D02*
G01X125219Y38308D01*
G01X124592Y37338D02*
G01X124592Y38308D01*
G01X124914Y37338D02*
G01X124269Y37338D01*
G01X125867Y42372D02*
G01X125867Y43342D01*
G01X125867Y42372D02*
G01X125544Y42372D01*
G01X125404Y42418D01*
G01X125313Y42509D01*
G01X125267Y42603D01*
G01X125219Y42740D01*
G01X125219Y42971D01*
G01X125267Y43111D01*
G01X125313Y43202D01*
G01X125404Y43294D01*
G01X125544Y43342D01*
G01X125867Y43342D01*
G01X124868Y42603D02*
G01X124868Y42557D01*
G01X124823Y42463D01*
G01X124777Y42418D01*
G01X124686Y42372D01*
G01X124500Y42372D01*
G01X124406Y42418D01*
G01X124360Y42463D01*
G01X124315Y42557D01*
G01X124315Y42649D01*
G01X124360Y42740D01*
G01X124454Y42880D01*
G01X124914Y43342D01*
G01X124269Y43342D01*
G01X125867Y44912D02*
G01X125867Y45882D01*
G01X125867Y44912D02*
G01X125544Y44912D01*
G01X125404Y44958D01*
G01X125313Y45049D01*
G01X125267Y45143D01*
G01X125219Y45280D01*
G01X125219Y45511D01*
G01X125267Y45651D01*
G01X125313Y45742D01*
G01X125404Y45834D01*
G01X125544Y45882D01*
G01X125867Y45882D01*
G01X124823Y44912D02*
G01X124315Y44912D01*
G01X124592Y45280D01*
G01X124454Y45280D01*
G01X124360Y45326D01*
G01X124315Y45374D01*
G01X124269Y45511D01*
G01X124269Y45605D01*
G01X124315Y45742D01*
G01X124406Y45834D01*
G01X124546Y45882D01*
G01X124686Y45882D01*
G01X124823Y45834D01*
G01X124868Y45788D01*
G01X124914Y45697D01*
G01X125912Y47452D02*
G01X125912Y48422D01*
G01X125912Y47452D02*
G01X125590Y47452D01*
G01X125450Y47498D01*
G01X125359Y47589D01*
G01X125313Y47683D01*
G01X125265Y47820D01*
G01X125265Y48051D01*
G01X125313Y48191D01*
G01X125359Y48282D01*
G01X125450Y48374D01*
G01X125590Y48422D01*
G01X125912Y48422D01*
G01X124500Y47452D02*
G01X124960Y48097D01*
G01X124269Y48097D01*
G01X124500Y47452D02*
G01X124500Y48422D01*
G01X125867Y49738D02*
G01X125867Y50708D01*
G01X125867Y49738D02*
G01X125544Y49738D01*
G01X125404Y49784D01*
G01X125313Y49875D01*
G01X125267Y49969D01*
G01X125219Y50106D01*
G01X125219Y50337D01*
G01X125267Y50477D01*
G01X125313Y50568D01*
G01X125404Y50660D01*
G01X125544Y50708D01*
G01X125867Y50708D01*
G01X124360Y49738D02*
G01X124823Y49738D01*
G01X124868Y50152D01*
G01X124823Y50106D01*
G01X124686Y50060D01*
G01X124546Y50060D01*
G01X124406Y50106D01*
G01X124315Y50200D01*
G01X124269Y50337D01*
G01X124269Y50431D01*
G01X124315Y50568D01*
G01X124406Y50660D01*
G01X124546Y50708D01*
G01X124686Y50708D01*
G01X124823Y50660D01*
G01X124868Y50614D01*
G01X124914Y50523D01*
G01X125821Y52278D02*
G01X125821Y53248D01*
G01X125821Y52278D02*
G01X125498Y52278D01*
G01X125359Y52324D01*
G01X125267Y52415D01*
G01X125222Y52509D01*
G01X125173Y52646D01*
G01X125173Y52877D01*
G01X125222Y53017D01*
G01X125267Y53108D01*
G01X125359Y53200D01*
G01X125498Y53248D01*
G01X125821Y53248D01*
G01X124315Y52415D02*
G01X124360Y52324D01*
G01X124500Y52278D01*
G01X124592Y52278D01*
G01X124731Y52324D01*
G01X124823Y52463D01*
G01X124868Y52692D01*
G01X124868Y52923D01*
G01X124823Y53108D01*
G01X124731Y53200D01*
G01X124592Y53248D01*
G01X124546Y53248D01*
G01X124409Y53200D01*
G01X124315Y53108D01*
G01X124269Y52971D01*
G01X124269Y52923D01*
G01X124315Y52786D01*
G01X124409Y52692D01*
G01X124546Y52646D01*
G01X124592Y52646D01*
G01X124731Y52692D01*
G01X124823Y52786D01*
G01X124868Y52923D01*
G01X125867Y55072D02*
G01X125867Y56042D01*
G01X125867Y55072D02*
G01X125544Y55072D01*
G01X125404Y55118D01*
G01X125313Y55209D01*
G01X125267Y55303D01*
G01X125219Y55440D01*
G01X125219Y55671D01*
G01X125267Y55811D01*
G01X125313Y55902D01*
G01X125404Y55994D01*
G01X125544Y56042D01*
G01X125867Y56042D01*
G01X124269Y55072D02*
G01X124731Y56042D01*
G01X124914Y55072D02*
G01X124269Y55072D01*
G01X125867Y57358D02*
G01X125867Y58328D01*
G01X125867Y57358D02*
G01X125544Y57358D01*
G01X125404Y57404D01*
G01X125313Y57495D01*
G01X125267Y57589D01*
G01X125219Y57726D01*
G01X125219Y57957D01*
G01X125267Y58097D01*
G01X125313Y58188D01*
G01X125404Y58280D01*
G01X125544Y58328D01*
G01X125867Y58328D01*
G01X124686Y57358D02*
G01X124823Y57404D01*
G01X124868Y57495D01*
G01X124868Y57589D01*
G01X124823Y57680D01*
G01X124731Y57726D01*
G01X124546Y57772D01*
G01X124406Y57820D01*
G01X124315Y57912D01*
G01X124269Y58003D01*
G01X124269Y58143D01*
G01X124315Y58234D01*
G01X124360Y58280D01*
G01X124500Y58328D01*
G01X124686Y58328D01*
G01X124823Y58280D01*
G01X124868Y58234D01*
G01X124914Y58143D01*
G01X124914Y58003D01*
G01X124868Y57912D01*
G01X124777Y57820D01*
G01X124637Y57772D01*
G01X124454Y57726D01*
G01X124360Y57680D01*
G01X124315Y57589D01*
G01X124315Y57495D01*
G01X124360Y57404D01*
G01X124500Y57358D01*
G01X124686Y57358D01*
G01X125821Y59898D02*
G01X125821Y60868D01*
G01X125821Y59898D02*
G01X125498Y59898D01*
G01X125359Y59944D01*
G01X125267Y60035D01*
G01X125222Y60129D01*
G01X125173Y60266D01*
G01X125173Y60497D01*
G01X125222Y60637D01*
G01X125267Y60728D01*
G01X125359Y60820D01*
G01X125498Y60868D01*
G01X125821Y60868D01*
G01X124269Y60220D02*
G01X124315Y60360D01*
G01X124409Y60452D01*
G01X124546Y60497D01*
G01X124592Y60497D01*
G01X124731Y60452D01*
G01X124823Y60360D01*
G01X124868Y60220D01*
G01X124868Y60175D01*
G01X124823Y60035D01*
G01X124731Y59944D01*
G01X124592Y59898D01*
G01X124546Y59898D01*
G01X124409Y59944D01*
G01X124315Y60035D01*
G01X124269Y60220D01*
G01X124269Y60452D01*
G01X124315Y60683D01*
G01X124409Y60820D01*
G01X124546Y60868D01*
G01X124640Y60868D01*
G01X124777Y60820D01*
G01X124823Y60728D01*
G01X126403Y62692D02*
G01X126403Y63662D01*
G01X126403Y62692D02*
G01X126080Y62692D01*
G01X125940Y62738D01*
G01X125849Y62829D01*
G01X125803Y62923D01*
G01X125755Y63060D01*
G01X125755Y63291D01*
G01X125803Y63431D01*
G01X125849Y63522D01*
G01X125940Y63614D01*
G01X126080Y63662D01*
G01X126403Y63662D01*
G01X125450Y62877D02*
G01X125359Y62829D01*
G01X125222Y62692D01*
G01X125222Y63662D01*
G01X124637Y62692D02*
G01X124777Y62738D01*
G01X124868Y62877D01*
G01X124917Y63106D01*
G01X124917Y63246D01*
G01X124868Y63477D01*
G01X124777Y63614D01*
G01X124637Y63662D01*
G01X124546Y63662D01*
G01X124409Y63614D01*
G01X124315Y63477D01*
G01X124269Y63246D01*
G01X124269Y63106D01*
G01X124315Y62877D01*
G01X124409Y62738D01*
G01X124546Y62692D01*
G01X124637Y62692D01*
G01X130467Y64978D02*
G01X130467Y65948D01*
G01X130467Y64978D02*
G01X130144Y64978D01*
G01X130004Y65024D01*
G01X129913Y65115D01*
G01X129867Y65209D01*
G01X129819Y65346D01*
G01X129819Y65577D01*
G01X129867Y65717D01*
G01X129913Y65808D01*
G01X130004Y65900D01*
G01X130144Y65948D01*
G01X130467Y65948D01*
G01X129514Y65163D02*
G01X129423Y65115D01*
G01X129286Y64978D01*
G01X129286Y65948D01*
G01X128981Y65163D02*
G01X128887Y65115D01*
G01X128750Y64978D01*
G01X128750Y65948D01*
G01X127612Y64792D02*
G01X128445Y66271D01*
G01X127307Y64978D02*
G01X127307Y65948D01*
G01X127307Y64978D02*
G01X126939Y65948D01*
G01X126568Y64978D02*
G01X126939Y65948D01*
G01X126568Y64978D02*
G01X126568Y65948D01*
G01X125986Y64978D02*
G01X126080Y65024D01*
G01X126171Y65115D01*
G01X126217Y65209D01*
G01X126263Y65346D01*
G01X126263Y65577D01*
G01X126217Y65717D01*
G01X126171Y65808D01*
G01X126080Y65900D01*
G01X125986Y65948D01*
G01X125803Y65948D01*
G01X125709Y65900D01*
G01X125618Y65808D01*
G01X125572Y65717D01*
G01X125526Y65577D01*
G01X125526Y65346D01*
G01X125572Y65209D01*
G01X125618Y65115D01*
G01X125709Y65024D01*
G01X125803Y64978D01*
G01X125986Y64978D01*
G01X124574Y65115D02*
G01X124665Y65024D01*
G01X124805Y64978D01*
G01X124990Y64978D01*
G01X125128Y65024D01*
G01X125222Y65115D01*
G01X125222Y65209D01*
G01X125173Y65300D01*
G01X125128Y65346D01*
G01X125036Y65392D01*
G01X124759Y65486D01*
G01X124665Y65532D01*
G01X124620Y65577D01*
G01X124574Y65671D01*
G01X124574Y65808D01*
G01X124665Y65900D01*
G01X124805Y65948D01*
G01X124990Y65948D01*
G01X125128Y65900D01*
G01X125222Y65808D01*
G01X124269Y64978D02*
G01X124269Y65948D01*
G01X103667Y65486D02*
G01X103159Y65486D01*
G01X103436Y65854D01*
G01X103296Y65854D01*
G01X103205Y65900D01*
G01X103159Y65948D01*
G01X103111Y66085D01*
G01X103111Y66179D01*
G01X103159Y66316D01*
G01X103251Y66408D01*
G01X103390Y66456D01*
G01X103527Y66456D01*
G01X103667Y66408D01*
G01X103713Y66362D01*
G01X103759Y66271D01*
G01X102806Y65486D02*
G01X102438Y66456D01*
G01X102069Y65486D02*
G01X102438Y66456D01*
G01X101671Y65486D02*
G01X101163Y65486D01*
G01X101439Y65854D01*
G01X101302Y65854D01*
G01X101208Y65900D01*
G01X101163Y65948D01*
G01X101117Y66085D01*
G01X101117Y66179D01*
G01X101163Y66316D01*
G01X101257Y66408D01*
G01X101394Y66456D01*
G01X101533Y66456D01*
G01X101671Y66408D01*
G01X101716Y66362D01*
G01X101765Y66271D01*
G01X103390Y62692D02*
G01X103759Y63662D01*
G01X103390Y62692D02*
G01X103019Y63662D01*
G01X103619Y63337D02*
G01X103159Y63337D01*
G01X102715Y62692D02*
G01X102715Y63662D01*
G01X102715Y62692D02*
G01X102298Y62692D01*
G01X102161Y62738D01*
G01X102115Y62783D01*
G01X102069Y62877D01*
G01X102069Y62969D01*
G01X102115Y63060D01*
G01X102161Y63106D01*
G01X102298Y63154D01*
G01X102715Y63154D01*
G01X102392Y63154D02*
G01X102069Y63662D01*
G01X101765Y62692D02*
G01X101765Y63662D01*
G01X101765Y62692D02*
G01X101163Y62692D01*
G01X101765Y63154D02*
G01X101394Y63154D01*
G01X101765Y63662D02*
G01X101163Y63662D01*
G01X100858Y62692D02*
G01X100858Y63662D01*
G01X100858Y62692D02*
G01X100258Y62692D01*
G01X100858Y63154D02*
G01X100490Y63154D01*
G01X103390Y60406D02*
G01X103759Y61376D01*
G01X103390Y60406D02*
G01X103019Y61376D01*
G01X103619Y61051D02*
G01X103159Y61051D01*
G01X102438Y60406D02*
G01X102577Y60452D01*
G01X102669Y60591D01*
G01X102715Y60820D01*
G01X102715Y60960D01*
G01X102669Y61191D01*
G01X102577Y61328D01*
G01X102438Y61376D01*
G01X102346Y61376D01*
G01X102207Y61328D01*
G01X102115Y61191D01*
G01X102069Y60960D01*
G01X102069Y60820D01*
G01X102115Y60591D01*
G01X102207Y60452D01*
G01X102346Y60406D01*
G01X102438Y60406D01*
G01X103390Y57612D02*
G01X103759Y58582D01*
G01X103390Y57612D02*
G01X103019Y58582D01*
G01X103619Y58257D02*
G01X103159Y58257D01*
G01X102715Y57797D02*
G01X102623Y57749D01*
G01X102483Y57612D01*
G01X102483Y58582D01*
G01X103390Y55326D02*
G01X103759Y56296D01*
G01X103390Y55326D02*
G01X103019Y56296D01*
G01X103619Y55971D02*
G01X103159Y55971D01*
G01X102669Y55557D02*
G01X102669Y55511D01*
G01X102623Y55417D01*
G01X102577Y55372D01*
G01X102483Y55326D01*
G01X102298Y55326D01*
G01X102207Y55372D01*
G01X102161Y55417D01*
G01X102115Y55511D01*
G01X102115Y55603D01*
G01X102161Y55694D01*
G01X102252Y55834D01*
G01X102715Y56296D01*
G01X102069Y56296D01*
G01X103390Y52532D02*
G01X103759Y53502D01*
G01X103390Y52532D02*
G01X103019Y53502D01*
G01X103619Y53177D02*
G01X103159Y53177D01*
G01X102623Y52532D02*
G01X102115Y52532D01*
G01X102392Y52900D01*
G01X102252Y52900D01*
G01X102161Y52946D01*
G01X102115Y52994D01*
G01X102069Y53131D01*
G01X102069Y53225D01*
G01X102115Y53362D01*
G01X102207Y53454D01*
G01X102346Y53502D01*
G01X102483Y53502D01*
G01X102623Y53454D01*
G01X102669Y53408D01*
G01X102715Y53317D01*
G01X103390Y49992D02*
G01X103759Y50962D01*
G01X103390Y49992D02*
G01X103019Y50962D01*
G01X103619Y50637D02*
G01X103159Y50637D01*
G01X102252Y49992D02*
G01X102715Y50637D01*
G01X102021Y50637D01*
G01X102252Y49992D02*
G01X102252Y50962D01*
G01X103390Y47452D02*
G01X103759Y48422D01*
G01X103390Y47452D02*
G01X103019Y48422D01*
G01X103619Y48097D02*
G01X103159Y48097D01*
G01X102161Y47452D02*
G01X102623Y47452D01*
G01X102669Y47866D01*
G01X102623Y47820D01*
G01X102483Y47774D01*
G01X102346Y47774D01*
G01X102207Y47820D01*
G01X102115Y47914D01*
G01X102069Y48051D01*
G01X102069Y48145D01*
G01X102115Y48282D01*
G01X102207Y48374D01*
G01X102346Y48422D01*
G01X102483Y48422D01*
G01X102623Y48374D01*
G01X102669Y48328D01*
G01X102715Y48237D01*
G01X103390Y45166D02*
G01X103759Y46136D01*
G01X103390Y45166D02*
G01X103019Y46136D01*
G01X103619Y45811D02*
G01X103159Y45811D01*
G01X102161Y45303D02*
G01X102207Y45212D01*
G01X102346Y45166D01*
G01X102438Y45166D01*
G01X102577Y45212D01*
G01X102669Y45351D01*
G01X102715Y45580D01*
G01X102715Y45811D01*
G01X102669Y45996D01*
G01X102577Y46088D01*
G01X102438Y46136D01*
G01X102392Y46136D01*
G01X102252Y46088D01*
G01X102161Y45996D01*
G01X102115Y45859D01*
G01X102115Y45811D01*
G01X102161Y45674D01*
G01X102252Y45580D01*
G01X102392Y45534D01*
G01X102438Y45534D01*
G01X102577Y45580D01*
G01X102669Y45674D01*
G01X102715Y45811D01*
G01X103390Y42372D02*
G01X103759Y43342D01*
G01X103390Y42372D02*
G01X103019Y43342D01*
G01X103619Y43017D02*
G01X103159Y43017D01*
G01X102069Y42372D02*
G01X102529Y43342D01*
G01X102715Y42372D02*
G01X102069Y42372D01*
G01X103759Y37292D02*
G01X103759Y38262D01*
G01X103759Y37292D02*
G01X103342Y37292D01*
G01X103205Y37338D01*
G01X103159Y37383D01*
G01X103111Y37477D01*
G01X103111Y37569D01*
G01X103159Y37660D01*
G01X103205Y37706D01*
G01X103342Y37754D01*
G01X103759Y37754D01*
G01X103436Y37754D02*
G01X103111Y38262D01*
G01X102806Y37292D02*
G01X102806Y38262D01*
G01X102806Y37292D02*
G01X102207Y37292D01*
G01X102806Y37754D02*
G01X102438Y37754D01*
G01X102806Y38262D02*
G01X102207Y38262D01*
G01X101257Y37429D02*
G01X101348Y37338D01*
G01X101485Y37292D01*
G01X101671Y37292D01*
G01X101810Y37338D01*
G01X101902Y37429D01*
G01X101902Y37523D01*
G01X101856Y37614D01*
G01X101810Y37660D01*
G01X101716Y37706D01*
G01X101439Y37800D01*
G01X101348Y37846D01*
G01X101302Y37891D01*
G01X101257Y37985D01*
G01X101257Y38122D01*
G01X101348Y38214D01*
G01X101485Y38262D01*
G01X101671Y38262D01*
G01X101810Y38214D01*
G01X101902Y38122D01*
G01X100952Y37292D02*
G01X100952Y38262D01*
G01X100952Y37292D02*
G01X100350Y37292D01*
G01X100952Y37754D02*
G01X100581Y37754D01*
G01X100952Y38262D02*
G01X100350Y38262D01*
G01X99722Y37292D02*
G01X99722Y38262D01*
G01X100045Y37292D02*
G01X99400Y37292D01*
G54D16*
G01X11209Y21173D02*
G01X11107Y21069D01*
G01X11054Y20914D01*
G01X11054Y20706D01*
G01X11107Y20551D01*
G01X11209Y20447D01*
G01X11313Y20447D01*
G01X11417Y20497D01*
G01X11470Y20551D01*
G01X11521Y20655D01*
G01X11625Y20967D01*
G01X11678Y21069D01*
G01X11729Y21122D01*
G01X11833Y21173D01*
G01X11988Y21173D01*
G01X12092Y21069D01*
G01X12146Y20914D01*
G01X12146Y20706D01*
G01X12092Y20551D01*
G01X11988Y20447D01*
G01X11054Y21516D02*
G01X12146Y21777D01*
G01X11054Y22037D02*
G01X12146Y21777D01*
G01X11054Y22037D02*
G01X12146Y22296D01*
G01X11054Y22555D02*
G01X12146Y22296D01*
G01X11262Y22898D02*
G01X11209Y23002D01*
G01X11054Y23159D01*
G01X12146Y23159D01*
G01X62009Y21173D02*
G01X61907Y21069D01*
G01X61854Y20914D01*
G01X61854Y20706D01*
G01X61907Y20551D01*
G01X62009Y20447D01*
G01X62113Y20447D01*
G01X62217Y20497D01*
G01X62270Y20551D01*
G01X62321Y20655D01*
G01X62425Y20967D01*
G01X62478Y21069D01*
G01X62529Y21122D01*
G01X62633Y21173D01*
G01X62788Y21173D01*
G01X62892Y21069D01*
G01X62946Y20914D01*
G01X62946Y20706D01*
G01X62892Y20551D01*
G01X62788Y20447D01*
G01X61854Y21516D02*
G01X62946Y21777D01*
G01X61854Y22037D02*
G01X62946Y21777D01*
G01X61854Y22037D02*
G01X62946Y22296D01*
G01X61854Y22555D02*
G01X62946Y22296D01*
G01X62113Y22951D02*
G01X62062Y22951D01*
G01X61958Y23002D01*
G01X61907Y23055D01*
G01X61854Y23159D01*
G01X61854Y23368D01*
G01X61907Y23469D01*
G01X61958Y23522D01*
G01X62062Y23573D01*
G01X62166Y23573D01*
G01X62270Y23522D01*
G01X62425Y23418D01*
G01X62946Y22898D01*
G01X62946Y23627D01*
G01X112809Y21300D02*
G01X112707Y21196D01*
G01X112654Y21041D01*
G01X112654Y20833D01*
G01X112707Y20678D01*
G01X112809Y20574D01*
G01X112913Y20574D01*
G01X113017Y20624D01*
G01X113070Y20678D01*
G01X113121Y20782D01*
G01X113225Y21094D01*
G01X113278Y21196D01*
G01X113329Y21249D01*
G01X113433Y21300D01*
G01X113588Y21300D01*
G01X113692Y21196D01*
G01X113746Y21041D01*
G01X113746Y20833D01*
G01X113692Y20678D01*
G01X113588Y20574D01*
G01X112654Y21643D02*
G01X113746Y21904D01*
G01X112654Y22164D02*
G01X113746Y21904D01*
G01X112654Y22164D02*
G01X113746Y22423D01*
G01X112654Y22682D02*
G01X113746Y22423D01*
G01X112654Y23129D02*
G01X112654Y23700D01*
G01X113070Y23390D01*
G01X113070Y23545D01*
G01X113121Y23649D01*
G01X113174Y23700D01*
G01X113329Y23754D01*
G01X113433Y23754D01*
G01X113588Y23700D01*
G01X113692Y23596D01*
G01X113746Y23441D01*
G01X113746Y23286D01*
G01X113692Y23129D01*
G01X113642Y23078D01*
G01X113538Y23025D01*
G01X70485Y82369D02*
G01X70485Y81592D01*
G01X70535Y81434D01*
G01X70639Y81330D01*
G01X70797Y81280D01*
G01X70901Y81280D01*
G01X71056Y81330D01*
G01X71160Y81434D01*
G01X71211Y81592D01*
G01X71211Y82369D01*
G01X71607Y82110D02*
G01X71607Y82163D01*
G01X71658Y82268D01*
G01X71711Y82318D01*
G01X71815Y82369D01*
G01X72021Y82369D01*
G01X72125Y82318D01*
G01X72179Y82268D01*
G01X72229Y82163D01*
G01X72229Y82059D01*
G01X72179Y81955D01*
G01X72075Y81798D01*
G01X71554Y81280D01*
G01X72283Y81280D01*
G54D17*
G01X52578Y53503D02*
G01X52941Y52548D01*
G01X53304Y53503D02*
G01X52941Y52548D01*
G01X54287Y53274D02*
G01X54241Y53366D01*
G01X54150Y53457D01*
G01X54058Y53503D01*
G01X53878Y53503D01*
G01X53787Y53457D01*
G01X53695Y53366D01*
G01X53649Y53274D01*
G01X53604Y53140D01*
G01X53604Y52911D01*
G01X53649Y52774D01*
G01X53695Y52685D01*
G01X53787Y52594D01*
G01X53878Y52548D01*
G01X54058Y52548D01*
G01X54150Y52594D01*
G01X54241Y52685D01*
G01X54287Y52774D01*
G01X55267Y53274D02*
G01X55224Y53366D01*
G01X55133Y53457D01*
G01X55041Y53503D01*
G01X54858Y53503D01*
G01X54770Y53457D01*
G01X54678Y53366D01*
G01X54632Y53274D01*
G01X54587Y53140D01*
G01X54587Y52911D01*
G01X54632Y52774D01*
G01X54678Y52685D01*
G01X54770Y52594D01*
G01X54858Y52548D01*
G01X55041Y52548D01*
G01X55133Y52594D01*
G01X55224Y52685D01*
G01X55267Y52774D01*
G01X53258Y55824D02*
G01X53215Y55916D01*
G01X53124Y56007D01*
G01X53032Y56053D01*
G01X52849Y56053D01*
G01X52760Y56007D01*
G01X52669Y55916D01*
G01X52623Y55824D01*
G01X52578Y55690D01*
G01X52578Y55461D01*
G01X52623Y55324D01*
G01X52669Y55235D01*
G01X52760Y55144D01*
G01X52849Y55098D01*
G01X53032Y55098D01*
G01X53124Y55144D01*
G01X53215Y55235D01*
G01X53258Y55324D01*
G01X53258Y55461D01*
G01X53032Y55461D02*
G01X53258Y55461D01*
G01X53560Y56053D02*
G01X53560Y55098D01*
G01X53560Y56053D02*
G01X54195Y55098D01*
G01X54195Y56053D02*
G01X54195Y55098D01*
G01X54495Y56053D02*
G01X54495Y55098D01*
G01X54495Y56053D02*
G01X54813Y56053D01*
G01X54950Y56007D01*
G01X55041Y55916D01*
G01X55087Y55824D01*
G01X55133Y55690D01*
G01X55133Y55461D01*
G01X55087Y55324D01*
G01X55041Y55235D01*
G01X54950Y55144D01*
G01X54813Y55098D01*
G01X54495Y55098D01*
G01X53258Y58374D02*
G01X53215Y58466D01*
G01X53124Y58557D01*
G01X53032Y58603D01*
G01X52849Y58603D01*
G01X52760Y58557D01*
G01X52669Y58466D01*
G01X52623Y58374D01*
G01X52578Y58240D01*
G01X52578Y58011D01*
G01X52623Y57874D01*
G01X52669Y57785D01*
G01X52760Y57694D01*
G01X52849Y57648D01*
G01X53032Y57648D01*
G01X53124Y57694D01*
G01X53215Y57785D01*
G01X53258Y57874D01*
G01X53258Y58011D01*
G01X53032Y58011D02*
G01X53258Y58011D01*
G01X53560Y58603D02*
G01X53560Y57648D01*
G01X53560Y58603D02*
G01X54195Y57648D01*
G01X54195Y58603D02*
G01X54195Y57648D01*
G01X54495Y58603D02*
G01X54495Y57648D01*
G01X54495Y58603D02*
G01X54813Y58603D01*
G01X54950Y58557D01*
G01X55041Y58466D01*
G01X55087Y58374D01*
G01X55133Y58240D01*
G01X55133Y58011D01*
G01X55087Y57874D01*
G01X55041Y57785D01*
G01X54950Y57694D01*
G01X54813Y57648D01*
G01X54495Y57648D01*
G01X52578Y61153D02*
G01X52578Y60198D01*
G01X52578Y61153D02*
G01X53215Y60198D01*
G01X53215Y61153D02*
G01X53215Y60198D01*
G01X54195Y60924D02*
G01X54150Y61016D01*
G01X54058Y61107D01*
G01X53969Y61153D01*
G01X53787Y61153D01*
G01X53695Y61107D01*
G01X53604Y61016D01*
G01X53560Y60924D01*
G01X53515Y60790D01*
G01X53515Y60561D01*
G01X53560Y60424D01*
G01X53604Y60335D01*
G01X53695Y60244D01*
G01X53787Y60198D01*
G01X53969Y60198D01*
G01X54058Y60244D01*
G01X54150Y60335D01*
G01X54195Y60424D01*
G01X52578Y63703D02*
G01X52578Y62748D01*
G01X52578Y63703D02*
G01X53215Y62748D01*
G01X53215Y63703D02*
G01X53215Y62748D01*
G01X54195Y63474D02*
G01X54150Y63566D01*
G01X54058Y63657D01*
G01X53969Y63703D01*
G01X53787Y63703D01*
G01X53695Y63657D01*
G01X53604Y63566D01*
G01X53560Y63474D01*
G01X53515Y63340D01*
G01X53515Y63111D01*
G01X53560Y62974D01*
G01X53604Y62885D01*
G01X53695Y62794D01*
G01X53787Y62748D01*
G01X53969Y62748D01*
G01X54058Y62794D01*
G01X54150Y62885D01*
G01X54195Y62974D01*
G01X52578Y66253D02*
G01X52578Y65298D01*
G01X52578Y65298D02*
G01X53124Y65298D01*
G01X53423Y66253D02*
G01X53423Y65298D01*
G01X53423Y66253D02*
G01X54013Y66253D01*
G01X53423Y65798D02*
G01X53787Y65798D01*
G01X53423Y65298D02*
G01X54013Y65298D01*
G01X54315Y66253D02*
G01X54315Y65298D01*
G01X54315Y66253D02*
G01X54632Y66253D01*
G01X54770Y66207D01*
G01X54858Y66116D01*
G01X54904Y66024D01*
G01X54950Y65890D01*
G01X54950Y65661D01*
G01X54904Y65524D01*
G01X54858Y65435D01*
G01X54770Y65344D01*
G01X54632Y65298D01*
G01X54315Y65298D01*
G01X53258Y68574D02*
G01X53215Y68666D01*
G01X53124Y68757D01*
G01X53032Y68803D01*
G01X52849Y68803D01*
G01X52760Y68757D01*
G01X52669Y68666D01*
G01X52623Y68574D01*
G01X52578Y68440D01*
G01X52578Y68211D01*
G01X52623Y68074D01*
G01X52669Y67985D01*
G01X52760Y67894D01*
G01X52849Y67848D01*
G01X53032Y67848D01*
G01X53124Y67894D01*
G01X53215Y67985D01*
G01X53258Y68074D01*
G01X53560Y68803D02*
G01X53560Y67848D01*
G01X53560Y67848D02*
G01X54104Y67848D01*
G01X54404Y68803D02*
G01X54404Y67848D01*
G01X55041Y68803D02*
G01X54404Y68165D01*
G01X54632Y68394D02*
G01X55041Y67848D01*
G01X53215Y71216D02*
G01X53124Y71307D01*
G01X52986Y71353D01*
G01X52804Y71353D01*
G01X52669Y71307D01*
G01X52578Y71216D01*
G01X52578Y71124D01*
G01X52623Y71033D01*
G01X52669Y70990D01*
G01X52760Y70944D01*
G01X53032Y70853D01*
G01X53124Y70807D01*
G01X53169Y70761D01*
G01X53215Y70670D01*
G01X53215Y70535D01*
G01X53124Y70444D01*
G01X52986Y70398D01*
G01X52804Y70398D01*
G01X52669Y70444D01*
G01X52578Y70535D01*
G01X53515Y71353D02*
G01X53515Y70398D01*
G01X53515Y71353D02*
G01X53832Y71353D01*
G01X53969Y71307D01*
G01X54058Y71216D01*
G01X54104Y71124D01*
G01X54150Y70990D01*
G01X54150Y70761D01*
G01X54104Y70624D01*
G01X54058Y70535D01*
G01X53969Y70444D01*
G01X53832Y70398D01*
G01X53515Y70398D01*
G01X54449Y71353D02*
G01X54449Y70398D01*
G01X52578Y73903D02*
G01X52578Y72948D01*
G01X52578Y73903D02*
G01X52986Y73903D01*
G01X53124Y73857D01*
G01X53169Y73812D01*
G01X53215Y73720D01*
G01X53215Y73629D01*
G01X53169Y73540D01*
G01X53124Y73494D01*
G01X52986Y73448D01*
G01X52578Y73448D01*
G01X52895Y73448D02*
G01X53215Y72948D01*
G01X54150Y73766D02*
G01X54058Y73857D01*
G01X53924Y73903D01*
G01X53741Y73903D01*
G01X53604Y73857D01*
G01X53515Y73766D01*
G01X53515Y73674D01*
G01X53560Y73583D01*
G01X53604Y73540D01*
G01X53695Y73494D01*
G01X53969Y73403D01*
G01X54058Y73357D01*
G01X54104Y73311D01*
G01X54150Y73220D01*
G01X54150Y73085D01*
G01X54058Y72994D01*
G01X53924Y72948D01*
G01X53741Y72948D01*
G01X53604Y72994D01*
G01X53515Y73085D01*
G01X52578Y76453D02*
G01X52578Y75498D01*
G01X52578Y76453D02*
G01X52986Y76453D01*
G01X53124Y76407D01*
G01X53169Y76362D01*
G01X53215Y76270D01*
G01X53215Y76179D01*
G01X53169Y76090D01*
G01X53124Y76044D01*
G01X52986Y75998D01*
G01X52578Y75998D01*
G01X52895Y75998D02*
G01X53215Y75498D01*
G01X54150Y76316D02*
G01X54058Y76407D01*
G01X53924Y76453D01*
G01X53741Y76453D01*
G01X53604Y76407D01*
G01X53515Y76316D01*
G01X53515Y76224D01*
G01X53560Y76133D01*
G01X53604Y76090D01*
G01X53695Y76044D01*
G01X53969Y75953D01*
G01X54058Y75907D01*
G01X54104Y75861D01*
G01X54150Y75770D01*
G01X54150Y75635D01*
G01X54058Y75544D01*
G01X53924Y75498D01*
G01X53741Y75498D01*
G01X53604Y75544D01*
G01X53515Y75635D01*
G01X54770Y76453D02*
G01X54770Y75498D01*
G01X54449Y76453D02*
G01X55087Y76453D01*
G01X53258Y78774D02*
G01X53215Y78866D01*
G01X53124Y78957D01*
G01X53032Y79003D01*
G01X52849Y79003D01*
G01X52760Y78957D01*
G01X52669Y78866D01*
G01X52623Y78774D01*
G01X52578Y78640D01*
G01X52578Y78411D01*
G01X52623Y78274D01*
G01X52669Y78185D01*
G01X52760Y78094D01*
G01X52849Y78048D01*
G01X53032Y78048D01*
G01X53124Y78094D01*
G01X53215Y78185D01*
G01X53258Y78274D01*
G01X54195Y78866D02*
G01X54104Y78957D01*
G01X53969Y79003D01*
G01X53787Y79003D01*
G01X53649Y78957D01*
G01X53560Y78866D01*
G01X53560Y78774D01*
G01X53604Y78683D01*
G01X53649Y78640D01*
G01X53741Y78594D01*
G01X54013Y78503D01*
G01X54104Y78457D01*
G01X54150Y78411D01*
G01X54195Y78320D01*
G01X54195Y78185D01*
G01X54104Y78094D01*
G01X53969Y78048D01*
G01X53787Y78048D01*
G01X53649Y78094D01*
G01X53560Y78185D01*
G54D16*
G01X12065Y49149D02*
G01X12065Y48059D01*
G01X12065Y49149D02*
G01X12481Y48059D01*
G01X12895Y49149D02*
G01X12481Y48059D01*
G01X12895Y49149D02*
G01X12895Y48059D01*
G01X13967Y48994D02*
G01X13863Y49098D01*
G01X13705Y49149D01*
G01X13500Y49149D01*
G01X13342Y49098D01*
G01X13238Y48994D01*
G01X13238Y48889D01*
G01X13291Y48785D01*
G01X13342Y48735D01*
G01X13446Y48681D01*
G01X13759Y48577D01*
G01X13863Y48526D01*
G01X13914Y48473D01*
G01X13967Y48369D01*
G01X13967Y48214D01*
G01X13863Y48110D01*
G01X13705Y48059D01*
G01X13500Y48059D01*
G01X13342Y48110D01*
G01X13238Y48214D01*
G01X14310Y48940D02*
G01X14414Y48994D01*
G01X14569Y49149D01*
G01X14569Y48059D01*
M00*
M02*
