G04 Layer: BottomLayer*
G04 EasyEDA v5.9.42, Tue, 19 Feb 2019 02:49:18 GMT*
G04 6333967b838042d2a107bc752d40cc6d*
G04 Gerber Generator version 0.2*
G04 Scale: 100 percent, Rotated: No, Reflected: No *
G04 Dimensions in millimeters *
G04 leading zeros omitted , absolute positions ,3 integer and 3 decimal *
%FSLAX33Y33*%
%MOMM*%
G90*
G71D02*

%ADD10C,0.254000*%
%ADD11C,1.524000*%
%ADD12R,1.778000X1.778000*%
%ADD13C,1.778000*%
%ADD14C,1.414780*%
%ADD15C,2.684780*%

%LPD*%
G54D10*
G01X121793Y53086D02*
G01X129159Y53086D01*
G01X132080Y50581D01*
G01X132080Y12065D01*
G01X128778Y8763D01*
G01X73152Y8763D01*
G01X68707Y13208D01*
G01X121793Y55626D02*
G01X129720Y55626D01*
G01X133985Y52103D01*
G01X133985Y11176D01*
G01X130048Y7239D01*
G01X23876Y7239D01*
G01X17907Y13208D01*
G01X121793Y63246D02*
G01X124714Y63246D01*
G01X127000Y65659D01*
G01X127000Y75438D01*
G01X123571Y78486D01*
G01X51140Y78526D01*
G01X106553Y65786D02*
G01X100352Y65786D01*
G01X51140Y65775D01*
G01X106553Y60706D02*
G01X84963Y60706D01*
G01X73152Y48895D01*
G01X73152Y40535D01*
G01X62461Y29845D01*
G01X30076Y29845D01*
G01X19812Y29845D01*
G01X17907Y27686D01*
G01X106553Y58166D02*
G01X85979Y58166D01*
G01X76327Y48514D01*
G01X76327Y40281D01*
G01X63754Y27686D01*
G01X22987Y27686D01*
G01X106553Y55626D02*
G01X86710Y55626D01*
G01X80518Y49530D01*
G01X80518Y40027D01*
G01X68707Y28216D01*
G01X68707Y27686D01*
G01X106553Y53086D02*
G01X88658Y53086D01*
G01X83439Y47879D01*
G01X83439Y37871D01*
G01X73787Y28219D01*
G01X73787Y27686D01*
G01X106553Y68326D02*
G01X51141Y68326D01*
G01X106553Y48006D02*
G01X108331Y48006D01*
G01X110236Y46101D01*
G01X110236Y34036D01*
G01X113411Y30861D01*
G01X121539Y30861D01*
G01X124587Y27813D01*
G01X106553Y50546D02*
G01X103251Y50546D01*
G01X100711Y48006D01*
G01X100711Y31369D01*
G01X104267Y27813D01*
G01X119507Y27813D01*
G01X121793Y50546D02*
G01X128397Y50546D01*
G01X130556Y48387D01*
G01X130556Y13335D01*
G01X127508Y10287D01*
G01X122555Y10287D01*
G01X119507Y13335D01*
G01X121793Y58166D02*
G01X118618Y60960D01*
G01X118618Y68199D01*
G01X110490Y75819D01*
G01X51297Y75819D01*
G01X51140Y75976D01*
G54D12*
G01X121793Y32766D03*
G54D13*
G01X121793Y35306D03*
G01X121793Y37846D03*
G01X121793Y40386D03*
G01X121793Y42926D03*
G01X121793Y45466D03*
G01X121793Y48006D03*
G01X121793Y50546D03*
G01X121793Y53086D03*
G01X121793Y55626D03*
G01X121793Y58166D03*
G01X121793Y60706D03*
G01X121793Y63246D03*
G01X121793Y65786D03*
G01X121793Y68326D03*
G01X106553Y32766D03*
G01X106553Y35306D03*
G01X106553Y37846D03*
G01X106553Y40386D03*
G01X106553Y42926D03*
G01X106553Y45466D03*
G01X106553Y48006D03*
G01X106553Y50546D03*
G01X106553Y53086D03*
G01X106553Y55626D03*
G01X106553Y58166D03*
G01X106553Y60706D03*
G01X106553Y63246D03*
G01X106553Y65786D03*
G01X106553Y68326D03*
G54D14*
G01X20447Y27686D03*
G01X17907Y13208D03*
G54D15*
G01X13843Y20193D03*
G01X27051Y20193D03*
G54D14*
G01X22987Y13208D03*
G01X17907Y27686D03*
G01X22987Y27686D03*
G01X71247Y27686D03*
G01X68707Y13208D03*
G54D15*
G01X64643Y20193D03*
G01X77851Y20193D03*
G54D14*
G01X73787Y13208D03*
G01X68707Y27686D03*
G01X73787Y27686D03*
G01X122047Y27813D03*
G01X119507Y13335D03*
G54D15*
G01X115443Y20320D03*
G01X128651Y20320D03*
G54D14*
G01X124587Y13335D03*
G01X119507Y27813D03*
G01X124587Y27813D03*
G54D11*
G01X51141Y53026D03*
G01X51141Y55575D03*
G01X51141Y58126D03*
G01X51141Y60676D03*
G01X51141Y63225D03*
G01X51141Y65776D03*
G01X51141Y68326D03*
G01X51141Y70875D03*
G01X51141Y73426D03*
G01X51141Y75975D03*
G01X51141Y78526D03*
G01X20574Y50292D03*
G01X20574Y55372D03*
G01X6350Y50292D03*
G01X6350Y55372D03*
G54D13*
G01X7048Y50292D02*
G01X5651Y50292D01*
G01X7048Y55372D02*
G01X5651Y55372D01*
G01X21272Y50292D02*
G01X19875Y50292D01*
G01X21272Y55372D02*
G01X19875Y55372D01*
M00*
M02*
