;Layer: Drill PTH
;EasyEDA v5.9.42, Tue, 19 Feb 2019 02:49:18 GMT
;6333967b838042d2a107bc752d40cc6d
;Gerber Generator version 0.2
M48
METRIC,LZ,000.000
;Holesize 1 = 0.889 METRIC
T01C0.889
;Holesize 2 = 0.915 METRIC
T02C0.915
;Holesize 3 = 1.016 METRIC
T03C1.016
;Holesize 4 = 2.286 METRIC
T04C2.286
%
G05
G90
T01
X+020574Y+050292
X+020574Y+055372
X+006350Y+050292
X+006350Y+055372
T02
X+121793Y+032766
X+121793Y+035306
X+121793Y+037846
X+121793Y+040386
X+121793Y+042926
X+121793Y+045466
X+121793Y+048006
X+121793Y+050546
X+121793Y+053086
X+121793Y+055626
X+121793Y+058166
X+121793Y+060706
X+121793Y+063246
X+121793Y+065786
X+121793Y+068326
X+106553Y+032766
X+106553Y+035306
X+106553Y+037846
X+106553Y+040386
X+106553Y+042926
X+106553Y+045466
X+106553Y+048006
X+106553Y+050546
X+106553Y+053086
X+106553Y+055626
X+106553Y+058166
X+106553Y+060706
X+106553Y+063246
X+106553Y+065786
X+106553Y+068326
X+051141Y+053026
X+051141Y+055575
X+051141Y+058126
X+051141Y+060676
X+051141Y+063225
X+051141Y+065776
X+051141Y+068326
X+051141Y+070875
X+051141Y+073426
X+051141Y+075975
X+051141Y+078526
T03
X+020447Y+027686
X+017907Y+013208
X+022987Y+013208
X+017907Y+027686
X+022987Y+027686
X+071247Y+027686
X+068707Y+013208
X+073787Y+013208
X+068707Y+027686
X+073787Y+027686
X+122047Y+027813
X+119507Y+013335
X+124587Y+013335
X+119507Y+027813
X+124587Y+027813
X+006350Y+050292
X+006350Y+055372
X+020574Y+050292
X+020574Y+055372
T04
X+013843Y+020193
X+027051Y+020193
X+064643Y+020193
X+077851Y+020193
X+115443Y+020320
X+128651Y+020320
M30
